Coordinates
version=1
nRows=8
nColumns=46
inDegrees=yes

Units are S.I. units (second, meters, Newtons, ...)
Angles are in degrees.

endheader
time	pelvis_tilt	pelvis_list	pelvis_rotation	pelvis_tx	pelvis_ty	pelvis_tz	bb_angle	bb_tx	bb_ty	bb_tz	hip_flexion_r	hip_adduction_r	hip_rotation_r	knee_angle_r	knee_angle_r_beta	ankle_angle_r	subtalar_angle_r	mtp_angle_r	crank_angle_r	hip_flexion_l	hip_adduction_l	hip_rotation_l	knee_angle_l	knee_angle_l_beta	ankle_angle_l	subtalar_angle_l	mtp_angle_l	crank_angle_l	lumbar_extension	lumbar_bending	lumbar_rotation	arm_flex_r	arm_add_r	arm_rot_r	elbow_flex_r	pro_sup_r	wrist_flex_r	wrist_dev_r	arm_flex_l	arm_add_l	arm_rot_l	elbow_flex_l	pro_sup_l	wrist_flex_l	wrist_dev_l
      5.00000000	     -8.36037757	     -5.95493111	     -6.28847471	      0.10209673	      1.17171045	     -0.26299676	      0.00000000	      0.50000000	      0.00000000	      0.25000000	     89.15474003	     -3.06544166	     -0.53708333	    105.39811201	      1.83954408	      2.62061169	      3.91729561	      0.00000000	      0.00000000	     43.84864212	    -19.07178283	    -12.53984215	     53.13321152	      0.92734948	    -23.10733287	      3.82669602	      0.00000000	      0.00000000	    -64.14652203	      3.50918314	      5.04844833	     89.75762243	      0.57813818	     25.37408499	     40.71585251	     22.25051121	      0.00000000	      0.00000000	     89.72528047	     -8.80117195	     28.99747138	     33.39456560	     19.33582353	      0.00000000	      0.00000000
      5.00500000	     -8.34222731	     -5.57009714	     -6.34525571	      0.10144573	      1.17219015	     -0.26269801	      0.00000000	      0.50000000	      0.00000000	      0.25000000	     88.42495681	     -2.97991225	     -0.33633896	    103.81384950	      1.81189348	      3.80269403	      4.01364872	      0.00000000	      0.00000000	     44.44005656	    -18.98969016	    -12.44838648	     54.75396045	      0.95563689	    -23.97583872	      3.49798061	      0.00000000	      0.00000000	    -64.18661940	      3.20279388	      4.60488859	     89.76069113	      0.60329205	     25.30268351	     40.80524510	     22.24045246	      0.00000000	      0.00000000	     89.73348599	     -8.83945268	     28.92263585	     33.44192260	     19.35128263	      0.00000000	      0.00000000
      5.01000000	     -8.65646218	     -5.68044712	     -6.62836262	      0.10099460	      1.17190608	     -0.26216084	      0.00000000	      0.50000000	      0.00000000	      0.25000000	     87.65591048	     -2.54481668	     -0.55273633	    101.98047864	      1.77989512	      5.97438683	      5.05060217	      0.00000000	      0.00000000	     45.63289257	    -19.63170942	    -12.30483692	     56.73930441	      0.99028768	    -25.24975638	      2.15617341	      0.00000000	      0.00000000	    -63.99852959	      3.19151431	      4.71708189	     89.76043116	      0.98873620	     25.25073017	     40.96048904	     22.17345909	      0.00000000	      0.00000000	     89.71487046	     -9.25716366	     28.63783500	     33.60731913	     19.37447954	      0.00000000	      0.00000000
      5.01500000	     -8.75287977	     -5.43039456	     -6.59335104	      0.10038058	      1.17182051	     -0.26166722	      0.00000000	      0.50000000	      0.00000000	      0.25000000	     86.67101440	     -2.55578905	     -0.50321776	    100.09151473	      1.74692649	      7.76995823	      5.51943797	      0.00000000	      0.00000000	     46.58148916	    -19.67382539	    -12.07203318	     58.58706545	      1.02253719	    -26.26340435	      1.35170530	      0.00000000	      0.00000000	    -63.92217639	      3.07256950	      4.41564462	     89.76017537	      1.11331371	     25.16062654	     41.03868127	     22.10645934	      0.00000000	      0.00000000	     89.71065108	     -9.45781620	     28.45968563	     33.78334657	     19.40560423	      0.00000000	      0.00000000
      5.02000000	     -8.79471766	     -5.21663516	     -6.45798115	      0.09978542	      1.17162026	     -0.26118731	      0.00000000	      0.50000000	      0.00000000	      0.25000000	     85.49193670	     -2.62776864	     -0.49144602	     98.06801303	      1.71160972	      9.51497552	      6.13467189	      0.00000000	      0.00000000	     47.56520549	    -19.70475155	    -11.76971159	     60.51415441	      1.05617124	    -27.21273878	      0.49442931	      0.00000000	      0.00000000	    -63.90675725	      3.01536945	      4.07207398	     89.75946021	      1.26994152	     25.05899951	     41.10703887	     22.00630028	      0.00000000	      0.00000000	     89.70657470	     -9.65231338	     28.28846371	     34.01107579	     19.45112241	      0.00000000	      0.00000000
      5.02500000	     -8.83672149	     -4.93282625	     -6.35418546	      0.09923747	      1.17126849	     -0.26047823	      0.00000000	      0.50000000	      0.00000000	      0.25000000	     84.21316044	     -2.63074324	     -0.44568521	     95.91273225	      1.67399297	     11.24227306	      6.37873995	      0.00000000	      0.00000000	     48.53492481	    -19.71883528	    -11.53271850	     62.46365233	      1.09019640	    -27.98454837	     -0.21739083	      0.00000000	      0.00000000	    -63.83543580	      2.86520203	      3.73182816	     89.75689473	      1.34877146	     24.98084408	     41.14450272	     21.92133805	      0.00000000	      0.00000000	     89.70500790	     -9.79991092	     28.18513614	     34.20729998	     19.49213075	      0.00000000	      0.00000000
      5.03000000	     -8.78572541	     -4.67464523	     -6.18158774	      0.09890982	      1.17085303	     -0.25966472	      0.00000000	      0.50000000	      0.00000000	      0.25000000	     82.74691422	     -2.77548125	     -0.50426501	     93.68945653	      1.63518949	     12.86678449	      6.64468124	      0.00000000	      0.00000000	     49.46200331	    -19.75402911	    -11.26920210	     64.50835899	      1.12588326	    -28.55153603	     -0.82689373	      0.00000000	      0.00000000	    -63.83483840	      2.73205789	      3.41444019	     89.75417846	      1.38705319	     24.92215439	     41.12655857	     21.84155373	      0.00000000	      0.00000000	     89.70504642	     -9.89568544	     28.15228485	     34.38441774	     19.53146082	      0.00000000	      0.00000000
      5.03500000	     -8.69972303	     -4.29804520	     -5.99441238	      0.09872218	      1.17023487	     -0.25875757	      0.00000000	      0.50000000	      0.00000000	      0.25000000	     81.22555730	     -2.96651913	     -0.52851319	     91.40408974	      1.59530232	     14.36255747	      6.62924306	      0.00000000	      0.00000000	     50.34086485	    -19.69874799	    -11.09155958	     66.58325695	      1.16209706	    -28.85419557	     -1.37601834	      0.00000000	      0.00000000	    -63.81347986	      2.52838237	      3.03014911	     89.74928892	      1.34643199	     24.86826429	     41.08851404	     21.78806089	      0.00000000	      0.00000000	     89.70947440	     -9.92791497	     28.17148243	     34.49549935	     19.55696294	      0.00000000	      0.00000000
